<?xml version="1.0" encoding="UTF-8" standalone="no"?><svg width="74" height="84" viewBox="0 0 74 84" fill="none" xmlns="http://www.w3.org/2000/svg">
<path d="M72 18.3171V28.3153H2.21674V18.3171C2.21674 14.3864 5.4048 11.204 9.33031 11.204H15.6747V15.1756C15.6747 18.0659 18.0161 20.4079 20.907 20.4079C23.7968 20.4079 26.1393 18.0659 26.1393 15.1756V11.204H48.0775V15.1756C48.0775 18.0659 50.4195 20.4079 53.3098 20.4079C56.2006 20.4079 58.5421 18.0659 58.5421 15.1756V11.204H64.8865C68.812 11.204 72 14.3864 72 18.3171Z" fill="#54A85F"/>
<path d="M8.30326 12.0624L8.28915 19.1901V27.5756L3.05526 27.1563L2.63599 27.5756L3.05526 17.9322C3.05528 13.6751 7.46471 12.4817 8.30326 12.0624Z" fill="#067114" fill-opacity="0.7"/>
<path d="M72 73.7106V28.336H2.21674V73.7106C2.21674 77.6412 5.4048 80.8237 9.33031 80.8237H64.8865C68.812 80.8237 72 77.6412 72 73.7106Z" fill="white"/>
<path d="M26.1393 15.1933V11.2247L26.1393 7.2323C26.1393 5.78714 25.5546 4.48035 24.6065 3.53229C23.6589 2.58422 22.3516 2 20.907 2C18.0162 2 15.6747 4.34198 15.6747 7.2323V15.1756C15.6747 18.0659 18.0162 20.4079 20.907 20.4079C23.7909 20.4079 26.1297 18.0754 26.1393 15.1933Z" fill="white"/>
<path d="M58.5421 15.1933V11.2247L58.5421 7.2323C58.5421 5.78714 57.9579 4.48035 57.0104 3.53229C56.0618 2.58422 54.755 2 53.3098 2C50.4195 2 48.0775 4.34198 48.0775 7.2323V15.1756C48.0775 18.0659 50.4195 20.4079 53.3098 20.4079C56.1948 20.4079 58.5326 18.0754 58.5421 15.1933Z" fill="white"/>
<path d="M72 73.7106V28.1573H2.21674V73.7106M72 73.7106C72 77.6412 68.812 80.8237 64.8865 80.8237H9.33031C5.4048 80.8237 2.21674 77.6412 2.21674 73.7106M72 73.7106V28.336M2.21674 73.7106V28.336M72 28.336V18.3377C72 14.4071 68.812 11.2247 64.8865 11.2247H58.5421M72 28.336H2.21674M2.21674 28.336V18.3377C2.21674 14.4071 5.4048 11.2247 9.33031 11.2247H15.6747V15.1963C15.6747 18.0866 18.0161 20.4286 20.907 20.4286C23.7968 20.4286 26.1393 18.0866 26.1393 15.1963V15.1933M26.1393 11.2247H48.0775V15.1963C48.0775 18.0866 50.4195 20.4286 53.3098 20.4286C56.2006 20.4286 58.5421 18.0866 58.5421 15.1963V15.1933M26.1393 11.2247V15.1933M26.1393 11.2247L26.1393 7.2323M58.5421 11.2247V15.1933M58.5421 11.2247L58.5421 7.2323M58.5421 7.2323V15.1756C58.5421 15.1815 58.5421 15.1874 58.5421 15.1933M58.5421 7.2323C58.5421 5.78714 57.9579 4.48035 57.0104 3.53229C56.0618 2.58422 54.755 2 53.3098 2C50.4195 2 48.0775 4.34198 48.0775 7.2323V15.1756C48.0775 18.0659 50.4195 20.4079 53.3098 20.4079C56.1948 20.4079 58.5326 18.0754 58.5421 15.1933M26.1393 7.2323V15.1756C26.1393 15.1815 26.1393 15.1874 26.1393 15.1933M26.1393 7.2323C26.1393 5.78714 25.5546 4.48035 24.6065 3.53229C23.6589 2.58422 22.3516 2 20.907 2C18.0162 2 15.6747 4.34198 15.6747 7.2323V15.1756C15.6747 18.0659 18.0162 20.4079 20.907 20.4079C23.7909 20.4079 26.1297 18.0754 26.1393 15.1933" stroke="#443D33" stroke-width="3" stroke-miterlimit="10" stroke-linecap="round" stroke-linejoin="round"/>
<path d="M28.2173 69.1067C26.4037 69.1067 24.7761 68.728 23.335 67.9716C21.7136 67.0953 20.6205 65.8638 20.0557 64.2782C19.984 64.062 19.9481 63.8524 19.9481 63.6474C19.9481 63.1677 20.1306 62.768 20.4975 62.4492C20.8639 62.1315 21.2872 61.9721 21.7674 61.9721C22.2476 61.9721 22.6617 62.1945 23.0106 62.6388L23.8393 63.8816C24.2718 64.4704 24.8545 64.9116 25.5868 65.2058C26.3191 65.501 27.1965 65.6475 28.2173 65.6475C29.5262 65.6475 30.6736 65.2396 31.6585 64.4222C32.7035 63.5577 33.2262 62.501 33.2262 61.2516C33.2262 59.438 32.5595 57.9902 31.226 56.9094C30.0489 55.9726 28.4879 55.4023 26.542 55.1978C25.2086 55.0656 24.5419 54.5254 24.5419 53.5763C24.5419 52.8676 25.0646 52.3275 26.1095 51.9549L30.4153 50.892C31.2445 50.5922 31.8681 50.1869 32.2894 49.6759C32.7096 49.1655 32.9259 48.5439 32.9377 47.8111C32.9617 46.7544 32.5528 45.9011 31.7129 45.2528C30.836 44.58 29.6046 44.2438 28.0195 44.2438C27.2021 44.2438 26.4093 44.4421 25.6411 44.8382L23.6051 46.1174C23.209 46.37 22.8907 46.4961 22.6504 46.4961C22.1697 46.4961 21.7587 46.3131 21.4163 45.9462C21.074 45.5798 20.9029 45.1626 20.9029 44.6942C20.9029 43.7457 21.8217 42.8324 23.6594 41.9556C25.2563 41.1751 26.5713 40.7846 27.6049 40.7846C30.1872 40.7846 32.2351 41.355 33.7484 42.4963C35.3698 43.7216 36.1805 45.4691 36.1805 47.7388C36.1805 50.5615 35.0393 52.4233 32.7578 53.3242C32.5528 53.4083 32.3186 53.4928 32.0552 53.5763C33.652 54.1647 34.8476 55.0446 35.6404 56.2155C36.4332 57.3871 36.8293 58.8491 36.8293 60.6028C36.8293 62.9694 35.994 64.9782 34.3249 66.6294C32.6553 68.2806 30.6198 69.1067 28.2173 69.1067ZM52.5216 68.296H48.9364L45.3691 68.278C44.5282 68.278 43.9393 68.2237 43.6037 68.1156C42.9907 67.8993 42.6848 67.4432 42.6848 66.7463C42.6848 65.5332 43.6278 64.9265 45.5131 64.9265L46.3782 64.9449L47.1166 64.9808C47.1166 64.4043 47.0654 63.5515 46.9634 62.4226C46.8614 61.2941 46.8107 60.447 46.8107 59.8823C46.8107 58.3572 46.948 56.0388 47.2248 52.9276C47.4887 49.865 47.6147 47.541 47.603 45.9554C45.9933 47.2048 44.9663 47.829 44.5225 47.829C44.0418 47.829 43.6242 47.6491 43.27 47.2884C42.9159 46.9281 42.7386 46.514 42.7386 46.0456C42.7386 45.4809 43.2547 44.7962 44.2883 43.9917C44.9366 43.535 45.8554 42.8027 47.0449 41.7937C48.1011 40.7247 49.1101 40.1902 50.0715 40.1902C50.8756 40.1902 51.2784 40.6524 51.2784 41.5774C51.2784 41.8536 51.2425 42.2651 51.1702 42.8114C51.0985 43.3588 51.0621 43.7692 51.0621 44.0455C51.0621 44.4421 51.0826 45.0432 51.1251 45.8473C51.1672 46.6519 51.1882 47.2525 51.1882 47.6491C51.1882 49.0179 51.0442 51.0606 50.7562 53.7747C50.4676 56.4892 50.3236 58.5247 50.3236 59.8823C50.3236 60.5787 50.3713 61.4253 50.4676 62.4226C50.564 63.4198 50.6178 64.2362 50.6301 64.8727L52.5216 64.8368C53.0259 64.8368 53.443 65.0018 53.7736 65.3318C54.1041 65.6629 54.2691 66.0739 54.2691 66.5664C54.2691 67.0707 54.1041 67.4852 53.7736 67.8091C53.443 68.1335 53.0259 68.296 52.5216 68.296Z" fill="#100F0D"/>
<path d="M8.08651 79.985L8.0724 72.8573L8.07245 29.672H2.00001H3.47452L3.47448 74.0508C3.47449 78.3079 7.24796 79.5657 8.08651 79.985Z" fill="#443D33" fill-opacity="0.31"/>
<path d="M18.9876 18.771L18.9799 16.6327L18.9799 3.67712H15.6334H16.446L16.446 16.9908C16.446 18.2679 18.5255 18.6452 18.9876 18.771Z" fill="#443D33" fill-opacity="0.31"/>
<path d="M51.6911 18.771L51.6833 16.6327L51.6834 3.67712H48.3369H49.1495L49.1495 16.9908C49.1495 18.2679 51.229 18.6452 51.6911 18.771Z" fill="#443D33" fill-opacity="0.31"/>
</svg>
