<?xml version="1.0" encoding="UTF-8" standalone="no"?><svg width="68" height="74" viewBox="0 0 68 74" fill="none" xmlns="http://www.w3.org/2000/svg">
<mask id="path-1-inside-1_1911_2823" fill="white">
<path d="M12.3244 47.3108L57.9559 63.1907L12.3244 47.3108Z"/>
</mask>
<path d="M12.3244 47.3108L57.9559 63.1907L12.3244 47.3108Z" fill="white"/>
<path d="M12.9817 45.4219L58.6132 61.3018L57.2985 65.0796L11.6671 49.1997L12.9817 45.4219Z" fill="#443D33" mask="url(#path-1-inside-1_1911_2823)"/>
<path d="M12.3244 47.3108L57.9559 63.1907" stroke="#443D33" stroke-width="2" stroke-miterlimit="10" stroke-linecap="round" stroke-linejoin="round" stroke-dasharray="133.33 15.36 0.85 10.24"/>
<path d="M63.1652 69.8689C59.1645 73.9729 52.5789 74.0536 48.4767 70.0454C44.3701 66.0358 44.2907 59.4586 48.3003 55.352C52.3099 51.2454 58.8866 51.166 62.9932 55.1755C67.0998 59.1851 67.1792 65.7614 63.1652 69.8689Z" fill="#3E8F95"/>
<path d="M63.1652 69.8689C59.1645 73.9729 52.5789 74.0536 48.4767 70.0454C44.3701 66.0358 44.2907 59.4586 48.3003 55.352C52.3099 51.2454 58.8866 51.166 62.9932 55.1755C67.0998 59.1851 67.1792 65.7614 63.1652 69.8689Z" stroke="#443D33" stroke-width="2" stroke-miterlimit="10" stroke-linecap="round" stroke-linejoin="round" stroke-dasharray="133.33 12.8 0.85 10.24"/>
<path d="M59.3145 66.105C57.3869 68.0811 54.2154 68.1199 52.2393 66.1884C50.2632 64.259 50.2278 61.092 52.1554 59.1145C54.0874 57.1384 57.2501 57.0987 59.2307 59.0307C61.2068 60.9592 61.2465 64.1289 59.3145 66.105Z" fill="white"/>
<path d="M59.3145 66.105C57.3869 68.0811 54.2154 68.1199 52.2393 66.1884C50.2632 64.259 50.2278 61.092 52.1554 59.1145C54.0874 57.1384 57.2501 57.0987 59.2307 59.0307C61.2068 60.9592 61.2465 64.1289 59.3145 66.105V66.105Z" stroke="#443D33" stroke-width="2" stroke-miterlimit="10" stroke-linecap="round" stroke-linejoin="round" stroke-dasharray="133.33 15.36 0.85 10.24"/>
<mask id="path-8-inside-2_1911_2823" fill="white">
<path d="M12.1613 47.3109L45.3405 12.1907L12.1613 47.3109Z"/>
</mask>
<path d="M12.1613 47.3109L45.3405 12.1907L12.1613 47.3109Z" fill="white"/>
<path d="M10.7074 45.9374L43.8867 10.8172L46.7943 13.5642L13.6151 48.6843L10.7074 45.9374Z" fill="#443D33" mask="url(#path-8-inside-2_1911_2823)"/>
<path d="M12.1613 47.3109L45.3405 12.1907" stroke="#443D33" stroke-width="2" stroke-miterlimit="10" stroke-linecap="round" stroke-linejoin="round" stroke-dasharray="133.33 15.36 0.85 10.24"/>
<path d="M22.6549 47.2138C22.6549 52.9569 18.0057 57.6105 12.267 57.6105C6.52837 57.6105 1.87482 52.9569 1.87482 47.2138C1.87482 41.4751 6.52837 36.826 12.267 36.826C18.0057 36.826 22.6549 41.4751 22.6549 47.2138Z" fill="#672121"/>
<path d="M22.6549 47.2138C22.6549 52.9569 18.0057 57.6105 12.267 57.6105C6.52837 57.6105 1.87482 52.9569 1.87482 47.2138C1.87482 41.4751 6.52837 36.826 12.267 36.826C18.0057 36.826 22.6549 41.4751 22.6549 47.2138Z" stroke="#443D33" stroke-width="2" stroke-miterlimit="10" stroke-linecap="round" stroke-linejoin="round" stroke-dasharray="133.33 12.8 0.85 10.24"/>
<path d="M17.269 47.2138C17.269 49.9794 15.0282 52.2202 12.267 52.2202C9.50131 52.2202 7.26501 49.9794 7.26501 47.2138C7.26501 44.4569 9.50131 42.2118 12.267 42.2118C15.0282 42.2118 17.269 44.4569 17.269 47.2138Z" fill="white"/>
<path d="M17.269 47.2138C17.269 49.9794 15.0282 52.2202 12.267 52.2202C9.50131 52.2202 7.26501 49.9794 7.26501 47.2138C7.26501 44.4569 9.50131 42.2118 12.267 42.2118C15.0282 42.2118 17.269 44.4569 17.269 47.2138Z" stroke="#443D33" stroke-width="2" stroke-miterlimit="10" stroke-linecap="round" stroke-linejoin="round" stroke-dasharray="133.33 15.36 0.85 10.24"/>
<path d="M55.7503 8.08845C58.0131 13.8359 55.1857 20.3289 49.4426 22.5961C43.6951 24.859 37.2022 22.0315 34.9349 16.2885C32.6721 10.541 35.4951 4.048 41.2382 1.78077C46.9857 -0.482059 53.4831 2.34096 55.7503 8.08845Z" fill="#FFF1BD"/>
<path d="M55.7503 8.08845C58.0131 13.8359 55.1857 20.3289 49.4426 22.5961C43.6951 24.859 37.2022 22.0315 34.9349 16.2885C32.6721 10.541 35.4951 4.04801 41.2382 1.78077C46.9857 -0.482059 53.4831 2.34096 55.7503 8.08845Z" stroke="#443D33" stroke-width="2" stroke-miterlimit="10" stroke-linecap="round" stroke-linejoin="round" stroke-dasharray="133.33 12.8 0.85 10.24"/>
<path d="M50.3513 10.2146C51.4408 12.9803 50.0823 16.1076 47.3166 17.1971C44.551 18.2867 41.4192 16.9281 40.3296 14.1624C39.2401 11.3923 40.5987 8.26937 43.3688 7.17986C46.1345 6.09035 49.2618 7.44892 50.3513 10.2146Z" fill="white"/>
<path d="M50.3513 10.2146C51.4408 12.9803 50.0823 16.1076 47.3166 17.1971C44.551 18.2867 41.4192 16.9281 40.3296 14.1624C39.2401 11.3923 40.5987 8.26937 43.3688 7.17986C46.1345 6.09035 49.2618 7.44892 50.3513 10.2146Z" stroke="#443D33" stroke-width="2" stroke-miterlimit="10" stroke-linecap="round" stroke-linejoin="round" stroke-dasharray="133.33 15.36 0.85 10.24"/>
</svg>
