<?xml version="1.0" encoding="UTF-8" standalone="no"?><svg width="72" height="65" viewBox="0 0 72 65" fill="none" xmlns="http://www.w3.org/2000/svg">
<g clip-path="url(#clip0_1911_2810)">
<path d="M19.0763 29.4806H4.59707C3.95134 29.4806 3.36335 29.7463 2.93641 30.1743C2.50947 30.6025 2.24439 31.1921 2.24439 31.8398V59.2803C2.24439 59.9281 2.50947 60.5175 2.93641 60.9457C3.36335 61.3738 3.95134 61.6394 4.59707 61.6394H19.0763C19.7221 61.6394 20.3101 61.3738 20.737 60.9457C21.164 60.5175 21.429 59.9281 21.429 59.2803V31.8398C21.429 31.1921 21.164 30.6025 20.737 30.1743C20.3101 29.7463 19.7221 29.4806 19.0763 29.4806ZM4.59707 27.23H19.0763C20.3417 27.23 21.4913 27.7483 22.3238 28.5831C23.1565 29.4181 23.6734 30.5709 23.6734 31.8398V59.2803C23.6734 60.5494 23.1565 61.7021 22.3238 62.5369C21.4913 63.3719 20.3417 63.8902 19.0763 63.8902H4.59707C3.33177 63.8902 2.18214 63.3719 1.34941 62.5369C0.516817 61.7021 0 60.5491 0 59.2803V31.8398C0 30.5709 0.516817 29.4181 1.34957 28.5831C2.18214 27.7483 3.33169 27.23 4.59707 27.23Z" fill="#443D33"/>
<path d="M21.8595 29.6443C21.3027 29.9112 21.0672 30.5805 21.3335 31.1386C21.5997 31.697 22.2671 31.9331 22.8237 31.6663C22.8686 31.6448 38.2283 24.5039 35.9792 2.45151C39.0887 1.88242 49.0453 1.65639 44.7295 23.5859L44.7285 23.5857C44.6083 24.1955 45.0042 24.7874 45.6121 24.9077C45.7675 24.9384 45.9216 24.9355 46.0672 24.9036C47.9155 24.6661 76.8483 21.1472 67.5877 35.3891L67.5848 35.3873C67.299 35.8267 67.3588 36.3919 67.6965 36.7615C68.119 37.3126 71.3294 41.7848 66.2226 44.2761L66.2181 44.2751C65.6923 44.5316 65.4562 45.1459 65.659 45.6839C65.8109 46.1406 67.4907 51.4805 63.5472 53.175L63.5437 53.1736C63.0847 53.3707 62.8242 53.8385 62.8679 54.3115C62.8616 55.2388 62.6169 62.6929 56.3295 61.8348L56.3301 61.8319C56.2724 61.8241 56.2155 61.8205 56.1588 61.8215H28.8649L23.0626 58.6219C22.5204 58.3234 21.8393 58.522 21.5416 59.0659C21.2439 59.6096 21.442 60.2926 21.9844 60.5911L27.9814 63.8982C28.1607 64.0121 28.3686 64.0725 28.5809 64.0723H56.1413C63.889 65.056 64.9426 57.3485 65.0827 54.9181C69.1275 52.689 68.5042 47.8751 68.0286 45.8499C73.4815 42.6384 71.0167 37.7289 69.8686 35.9617C79.4743 20.1794 53.8452 21.8439 47.2089 22.5175C51.9527 -4.39142 35.6217 0.153084 34.4839 0.499851C33.9398 0.634651 33.5698 1.1592 33.6403 1.73063H33.6409C36.2635 22.9534 21.9007 29.6244 21.8595 29.6443Z" fill="#443D33"/>
<path fill-rule="evenodd" clip-rule="evenodd" d="M35.9792 2.45147C37.9176 21.4563 26.7778 29.3862 23.6331 31.2288C23.6596 31.4287 23.6734 31.6326 23.6734 31.8397V58.9587L28.8649 61.8215H56.1588C56.2155 61.8205 56.2724 61.8241 56.3301 61.8318L56.3295 61.8348C62.6169 62.6928 62.8616 55.2388 62.8679 54.3114C62.8242 53.8384 63.0847 53.3707 63.5437 53.1736L63.5472 53.175C67.4907 51.4804 65.8109 46.1406 65.6589 45.6838C65.4561 45.1458 65.6923 44.5316 66.2181 44.2751L66.2226 44.2761C71.3294 41.7848 68.119 37.3126 67.6964 36.7615C67.3588 36.3918 67.299 35.8267 67.5848 35.3873L67.5877 35.3891C76.8482 21.1472 47.9155 24.666 46.0672 24.9036C45.9216 24.9355 45.7675 24.9384 45.612 24.9077C45.0042 24.7874 44.6083 24.1954 44.7285 23.5857L44.7295 23.5859C49.0453 1.65635 39.0887 1.88239 35.9792 2.45147Z" fill="#FBC2B7"/>
<path fill-rule="evenodd" clip-rule="evenodd" d="M21.429 59.2803V31.8397C21.429 31.1921 21.164 30.6025 20.737 30.1743C20.3101 29.7462 19.7221 29.4806 19.0763 29.4806H4.59707C3.95134 29.4806 3.36335 29.7462 2.93641 30.1743C2.50947 30.6025 2.24438 31.1921 2.24438 31.8397V59.2803C2.24438 59.9281 2.50947 60.5174 2.93641 60.9457C3.36335 61.3738 3.95134 61.6394 4.59707 61.6394H19.0763C19.7221 61.6394 20.3101 61.3738 20.737 60.9457C21.0863 60.5954 21.3273 60.1369 21.4033 59.6272C21.4017 59.5432 21.4095 59.4584 21.4271 59.3749C21.4284 59.3435 21.429 59.3119 21.429 59.2803Z" fill="#B6E6D6"/>
<path fill-rule="evenodd" clip-rule="evenodd" d="M5.61732 31.8397V59.2803C5.61732 60.1412 5.85523 60.9486 6.26824 61.6394H4.59707C3.95134 61.6394 3.36335 61.3738 2.93641 60.9457C2.50947 60.5174 2.24438 59.9281 2.24438 59.2803V31.8397C2.24438 31.1921 2.50947 30.6025 2.93641 30.1743C3.36335 29.7462 3.95134 29.4806 4.59707 29.4806H6.26824C5.85523 30.1714 5.61732 30.979 5.61732 31.8397Z" fill="#7FC7AD"/>
<path fill-rule="evenodd" clip-rule="evenodd" d="M27.0464 31.8397V59.2802C27.0464 59.3119 27.0458 59.3435 27.0445 59.3749C27.0269 59.4584 27.0191 59.5432 27.0207 59.6272C26.9679 59.9812 26.8356 60.3105 26.6425 60.5959L23.6734 58.9587V31.8397C23.6734 31.6326 23.6596 31.4287 23.6331 31.2288C24.1486 30.9268 24.879 30.4611 25.7315 29.8097C30.0584 25.7429 37.3799 16.1852 35.9792 2.45148C36.7716 2.30652 38.0086 2.18383 39.3406 2.44425C41.4919 22.4841 27.0464 30.4532 27.0464 31.8397Z" fill="#BD9186"/>
<path fill-rule="evenodd" clip-rule="evenodd" d="M28.6136 61.683C28.6951 61.55 28.7698 61.413 28.8375 61.2725L29.8331 61.8215H28.865L28.6136 61.683Z" fill="#677D9E"/>
</g>
<defs>
<clipPath id="clip0_1911_2810">
<rect width="72" height="64.1584" fill="white"/>
</clipPath>
</defs>
</svg>
